<svg xmlns="http://www.w3.org/2000/svg" viewBox="0 17.5 173.3000030517578 36.099998474121094" data-asc="1.06" width="173.3000030517578" height="36.099998474121094"><defs/><g fill="#ffffff"><g transform="translate(0, 0)"><path d="M0 53L0.50 49L0.50 22L0 18L11.05 18Q14.75 18 17.35 19.50Q19.95 21 21.33 23.45Q22.70 25.90 22.70 28.80Q22.70 30.70 22.05 32.60Q21.40 34.50 20.03 36.05Q18.65 37.60 16.43 38.52Q14.20 39.45 11.05 39.45L4.75 39.45L4.75 49L5.25 53L0 53M4.75 35.75L10.85 35.75Q14.70 35.75 16.45 33.80Q18.20 31.85 18.20 28.80Q18.20 25.65 16.38 23.67Q14.55 21.70 10.85 21.70L4.75 21.70L4.75 35.75ZM29.15 53L29.65 49L29.65 31.50L29.15 27.50L32.50 27.50L33.30 30.45L33.85 30.45L33.85 49L34.35 53L29.15 53M32.80 36.55L32.80 31.30L37.20 27.55Q39 26.90 40.90 26.90Q41.75 26.90 42.65 27.02Q43.55 27.15 44.50 27.55L44.50 30.90L43.70 31.40Q42.85 31.10 42.08 31Q41.30 30.90 40.65 30.90Q37.70 30.90 35.85 32.42Q34 33.95 32.80 36.55ZM66.60 53L65.85 50.35L65.85 36.75Q65.85 34.75 65.30 33.38Q64.75 32 63.15 31.25Q61.55 30.50 58.40 30.50Q56.55 30.50 54.98 30.85Q53.40 31.20 51.95 32.15L51.15 31.65L51.15 28.05Q53.35 27.35 55.28 27.13Q57.20 26.90 58.85 26.90Q63.20 26.90 65.63 28.05Q68.05 29.20 69.05 31.42Q70.05 33.65 70.05 36.90L70.05 49L70.55 53L66.60 53M58.15 53.60Q55.95 53.60 53.80 52.88Q51.65 52.15 50.23 50.38Q48.80 48.60 48.80 45.50Q48.80 43.10 49.70 41.50Q50.60 39.90 52.13 39Q53.65 38.10 55.55 37.73Q57.45 37.35 59.45 37.35Q60.65 37.35 61.68 37.45Q62.70 37.55 63.70 37.80L66.30 39.65L66.30 41.95Q65 41.25 63.53 40.98Q62.05 40.70 60.15 40.70Q56.65 40.70 54.83 41.73Q53 42.75 53 45.55Q53 47.85 54.35 48.98Q55.70 50.10 58.70 50.10Q61.80 50.10 63.63 49.10Q65.45 48.10 66.45 46.70L67.45 48.95L62.65 53Q61.65 53.25 60.50 53.42Q59.35 53.60 58.15 53.60ZM79.15 45.85L79.15 23.90L78.90 20.40L83.60 20.40L83.35 23.90L83.35 45.75Q83.35 48.15 84.42 49.08Q85.50 50 87.60 50Q88.60 50 89.32 49.80Q90.05 49.60 90.70 49.25L91.50 49.75L91.50 52.85Q90.40 53.25 89.27 53.42Q88.15 53.60 87.10 53.60Q85.10 53.60 83.27 52.92Q81.45 52.25 80.30 50.58Q79.15 48.90 79.15 45.85M74.85 31.25L74.85 27.50L78.05 27.50L81.25 29L84.45 27.50L91 27.50L91 31.25L88.50 31L77.35 31L74.85 31.25ZM102.40 23.30Q101.20 23.30 100.35 22.52Q99.50 21.75 99.50 20.40Q99.50 19.05 100.35 18.27Q101.20 17.50 102.40 17.50Q103.60 17.50 104.45 18.27Q105.30 19.05 105.30 20.40Q105.30 21.75 104.45 22.52Q103.60 23.30 102.40 23.30M100.60 53L101.10 49L101.10 30.90L95.90 30.90L95.90 27.50L105.80 27.50L105.30 31.50L105.30 49L105.80 53L100.60 53ZM120.80 53L111.40 27.50L116.40 27.50L117.50 31.50L122.90 47.95L123.15 50.30L123.45 50.30L123.70 47.95L129.10 31.50L130.20 27.50L135.20 27.50L125.80 53L120.80 53ZM157 53L156.25 50.35L156.25 36.75Q156.25 34.75 155.70 33.38Q155.15 32 153.55 31.25Q151.95 30.50 148.80 30.50Q146.95 30.50 145.38 30.85Q143.80 31.20 142.35 32.15L141.55 31.65L141.55 28.05Q143.75 27.35 145.68 27.13Q147.60 26.90 149.25 26.90Q153.60 26.90 156.03 28.05Q158.45 29.20 159.45 31.42Q160.45 33.65 160.45 36.90L160.45 49L160.95 53L157 53M148.55 53.60Q146.35 53.60 144.20 52.88Q142.05 52.15 140.63 50.38Q139.20 48.60 139.20 45.50Q139.20 43.10 140.10 41.50Q141 39.90 142.53 39Q144.05 38.10 145.95 37.73Q147.85 37.35 149.85 37.35Q151.05 37.35 152.07 37.45Q153.10 37.55 154.10 37.80L156.70 39.65L156.70 41.95Q155.40 41.25 153.93 40.98Q152.45 40.70 150.55 40.70Q147.05 40.70 145.22 41.73Q143.40 42.75 143.40 45.55Q143.40 47.85 144.75 48.98Q146.10 50.10 149.10 50.10Q152.20 50.10 154.03 49.10Q155.85 48.10 156.85 46.70L157.85 48.95L153.05 53Q152.05 53.25 150.90 53.42Q149.75 53.60 148.55 53.60ZM170.15 53.60Q168.80 53.60 167.90 52.80Q167 52 167 50.45Q167 48.95 167.90 48.13Q168.80 47.30 170.15 47.30Q171.45 47.30 172.38 48.13Q173.30 48.95 173.30 50.45Q173.30 52 172.38 52.80Q171.45 53.60 170.15 53.60Z"/></g></g></svg>